<svg xmlns="http://www.w3.org/2000/svg" xmlns:xlink="http://www.w3.org/1999/xlink" width="1920" height="1080" viewBox="0 0 1920 1080">
  <defs>
    <clipPath id="clip-Web_1920_1">
      <rect width="1920" height="1080"/>
    </clipPath>
  </defs>
  <g id="Web_1920_1" data-name="Web 1920 – 1" clip-path="url(#clip-Web_1920_1)">
    <rect width="1920" height="1080" fill="#fff"/>
    <g id="Group_1" data-name="Group 1">
      <path id="Path_1" data-name="Path 1" d="M0,0V1080" transform="translate(22)" fill="none" stroke="#fde6f1" stroke-width="1"/>
      <path id="Path_112" data-name="Path 112" d="M0,0V1080" transform="translate(1254)" fill="none" stroke="#fde6f1" stroke-width="1"/>
      <path id="Path_56" data-name="Path 56" d="M0,0V1080" transform="translate(638)" fill="none" stroke="#fde6f1" stroke-width="1"/>
      <path id="Path_111" data-name="Path 111" d="M0,0V1080" transform="translate(1870)" fill="none" stroke="#fde6f1" stroke-width="1"/>
      <path id="Path_28" data-name="Path 28" d="M0,0V1080" transform="translate(330)" fill="none" stroke="#fde6f1" stroke-width="1"/>
      <path id="Path_110" data-name="Path 110" d="M0,0V1080" transform="translate(1562)" fill="none" stroke="#fde6f1" stroke-width="1"/>
      <path id="Path_55" data-name="Path 55" d="M0,0V1080" transform="translate(946)" fill="none" stroke="#fde6f1" stroke-width="1"/>
      <path id="Path_14" data-name="Path 14" d="M0,0V1080" transform="translate(176)" fill="none" stroke="#fde6f1" stroke-width="1"/>
      <path id="Path_108" data-name="Path 108" d="M0,0V1080" transform="translate(1408)" fill="none" stroke="#fde6f1" stroke-width="1"/>
      <path id="Path_54" data-name="Path 54" d="M0,0V1080" transform="translate(792)" fill="none" stroke="#fde6f1" stroke-width="1"/>
      <path id="Path_27" data-name="Path 27" d="M0,0V1080" transform="translate(484)" fill="none" stroke="#fde6f1" stroke-width="1"/>
      <path id="Path_106" data-name="Path 106" d="M0,0V1080" transform="translate(1716)" fill="none" stroke="#fde6f1" stroke-width="1"/>
      <path id="Path_53" data-name="Path 53" d="M0,0V1080" transform="translate(1100)" fill="none" stroke="#fde6f1" stroke-width="1"/>
      <path id="Path_2" data-name="Path 2" d="M0,0V1080" transform="translate(44)" fill="none" stroke="#fde6f1" stroke-width="1"/>
      <path id="Path_104" data-name="Path 104" d="M0,0V1080" transform="translate(1276)" fill="none" stroke="#fde6f1" stroke-width="1"/>
      <path id="Path_52" data-name="Path 52" d="M0,0V1080" transform="translate(660)" fill="none" stroke="#fde6f1" stroke-width="1"/>
      <path id="Path_103" data-name="Path 103" d="M0,0V1080" transform="translate(1892)" fill="none" stroke="#fde6f1" stroke-width="1"/>
      <path id="Path_26" data-name="Path 26" d="M0,0V1080" transform="translate(352)" fill="none" stroke="#fde6f1" stroke-width="1"/>
      <path id="Path_102" data-name="Path 102" d="M0,0V1080" transform="translate(1584)" fill="none" stroke="#fde6f1" stroke-width="1"/>
      <path id="Path_51" data-name="Path 51" d="M0,0V1080" transform="translate(968)" fill="none" stroke="#fde6f1" stroke-width="1"/>
      <path id="Path_13" data-name="Path 13" d="M0,0V1080" transform="translate(198)" fill="none" stroke="#fde6f1" stroke-width="1"/>
      <path id="Path_100" data-name="Path 100" d="M0,0V1080" transform="translate(1430)" fill="none" stroke="#fde6f1" stroke-width="1"/>
      <path id="Path_50" data-name="Path 50" d="M0,0V1080" transform="translate(814)" fill="none" stroke="#fde6f1" stroke-width="1"/>
      <path id="Path_25" data-name="Path 25" d="M0,0V1080" transform="translate(506)" fill="none" stroke="#fde6f1" stroke-width="1"/>
      <path id="Path_98" data-name="Path 98" d="M0,0V1080" transform="translate(1738)" fill="none" stroke="#fde6f1" stroke-width="1"/>
      <path id="Path_49" data-name="Path 49" d="M0,0V1080" transform="translate(1122)" fill="none" stroke="#fde6f1" stroke-width="1"/>
      <path id="Path_3" data-name="Path 3" d="M0,0V1080" transform="translate(66)" fill="none" stroke="#fde6f1" stroke-width="1"/>
      <path id="Path_96" data-name="Path 96" d="M0,0V1080" transform="translate(1298)" fill="none" stroke="#fde6f1" stroke-width="1"/>
      <path id="Path_48" data-name="Path 48" d="M0,0V1080" transform="translate(682)" fill="none" stroke="#fde6f1" stroke-width="1"/>
      <path id="Path_95" data-name="Path 95" d="M0,0V1080" transform="translate(1914)" fill="none" stroke="#fde6f1" stroke-width="1"/>
      <path id="Path_24" data-name="Path 24" d="M0,0V1080" transform="translate(374)" fill="none" stroke="#fde6f1" stroke-width="1"/>
      <path id="Path_94" data-name="Path 94" d="M0,0V1080" transform="translate(1606)" fill="none" stroke="#fde6f1" stroke-width="1"/>
      <path id="Path_47" data-name="Path 47" d="M0,0V1080" transform="translate(990)" fill="none" stroke="#fde6f1" stroke-width="1"/>
      <path id="Path_12" data-name="Path 12" d="M0,0V1080" transform="translate(220)" fill="none" stroke="#fde6f1" stroke-width="1"/>
      <path id="Path_92" data-name="Path 92" d="M0,0V1080" transform="translate(1452)" fill="none" stroke="#fde6f1" stroke-width="1"/>
      <path id="Path_46" data-name="Path 46" d="M0,0V1080" transform="translate(836)" fill="none" stroke="#fde6f1" stroke-width="1"/>
      <path id="Path_23" data-name="Path 23" d="M0,0V1080" transform="translate(528)" fill="none" stroke="#fde6f1" stroke-width="1"/>
      <path id="Path_90" data-name="Path 90" d="M0,0V1080" transform="translate(1760)" fill="none" stroke="#fde6f1" stroke-width="1"/>
      <path id="Path_45" data-name="Path 45" d="M0,0V1080" transform="translate(1144)" fill="none" stroke="#fde6f1" stroke-width="1"/>
      <path id="Path_4" data-name="Path 4" d="M0,0V1080" transform="translate(88)" fill="none" stroke="#fde6f1" stroke-width="1"/>
      <path id="Path_88" data-name="Path 88" d="M0,0V1080" transform="translate(1320)" fill="none" stroke="#fde6f1" stroke-width="1"/>
      <path id="Path_44" data-name="Path 44" d="M0,0V1080" transform="translate(704)" fill="none" stroke="#fde6f1" stroke-width="1"/>
      <path id="Path_22" data-name="Path 22" d="M0,0V1080" transform="translate(396)" fill="none" stroke="#fde6f1" stroke-width="1"/>
      <path id="Path_86" data-name="Path 86" d="M0,0V1080" transform="translate(1628)" fill="none" stroke="#fde6f1" stroke-width="1"/>
      <path id="Path_43" data-name="Path 43" d="M0,0V1080" transform="translate(1012)" fill="none" stroke="#fde6f1" stroke-width="1"/>
      <path id="Path_11" data-name="Path 11" d="M0,0V1080" transform="translate(242)" fill="none" stroke="#fde6f1" stroke-width="1"/>
      <path id="Path_84" data-name="Path 84" d="M0,0V1080" transform="translate(1474)" fill="none" stroke="#fde6f1" stroke-width="1"/>
      <path id="Path_42" data-name="Path 42" d="M0,0V1080" transform="translate(858)" fill="none" stroke="#fde6f1" stroke-width="1"/>
      <path id="Path_21" data-name="Path 21" d="M0,0V1080" transform="translate(550)" fill="none" stroke="#fde6f1" stroke-width="1"/>
      <path id="Path_82" data-name="Path 82" d="M0,0V1080" transform="translate(1782)" fill="none" stroke="#fde6f1" stroke-width="1"/>
      <path id="Path_41" data-name="Path 41" d="M0,0V1080" transform="translate(1166)" fill="none" stroke="#fde6f1" stroke-width="1"/>
      <path id="Path_5" data-name="Path 5" d="M0,0V1080" transform="translate(110)" fill="none" stroke="#fde6f1" stroke-width="1"/>
      <path id="Path_80" data-name="Path 80" d="M0,0V1080" transform="translate(1342)" fill="none" stroke="#fde6f1" stroke-width="1"/>
      <path id="Path_40" data-name="Path 40" d="M0,0V1080" transform="translate(726)" fill="none" stroke="#fde6f1" stroke-width="1"/>
      <path id="Path_20" data-name="Path 20" d="M0,0V1080" transform="translate(418)" fill="none" stroke="#fde6f1" stroke-width="1"/>
      <path id="Path_78" data-name="Path 78" d="M0,0V1080" transform="translate(1650)" fill="none" stroke="#fde6f1" stroke-width="1"/>
      <path id="Path_39" data-name="Path 39" d="M0,0V1080" transform="translate(1034)" fill="none" stroke="#fde6f1" stroke-width="1"/>
      <path id="Path_10" data-name="Path 10" d="M0,0V1080" transform="translate(264)" fill="none" stroke="#fde6f1" stroke-width="1"/>
      <path id="Path_76" data-name="Path 76" d="M0,0V1080" transform="translate(1496)" fill="none" stroke="#fde6f1" stroke-width="1"/>
      <path id="Path_38" data-name="Path 38" d="M0,0V1080" transform="translate(880)" fill="none" stroke="#fde6f1" stroke-width="1"/>
      <path id="Path_19" data-name="Path 19" d="M0,0V1080" transform="translate(572)" fill="none" stroke="#fde6f1" stroke-width="1"/>
      <path id="Path_74" data-name="Path 74" d="M0,0V1080" transform="translate(1804)" fill="none" stroke="#fde6f1" stroke-width="1"/>
      <path id="Path_37" data-name="Path 37" d="M0,0V1080" transform="translate(1188)" fill="none" stroke="#fde6f1" stroke-width="1"/>
      <path id="Path_6" data-name="Path 6" d="M0,0V1080" transform="translate(132)" fill="none" stroke="#fde6f1" stroke-width="1"/>
      <path id="Path_72" data-name="Path 72" d="M0,0V1080" transform="translate(1364)" fill="none" stroke="#fde6f1" stroke-width="1"/>
      <path id="Path_36" data-name="Path 36" d="M0,0V1080" transform="translate(748)" fill="none" stroke="#fde6f1" stroke-width="1"/>
      <path id="Path_18" data-name="Path 18" d="M0,0V1080" transform="translate(440)" fill="none" stroke="#fde6f1" stroke-width="1"/>
      <path id="Path_70" data-name="Path 70" d="M0,0V1080" transform="translate(1672)" fill="none" stroke="#fde6f1" stroke-width="1"/>
      <path id="Path_35" data-name="Path 35" d="M0,0V1080" transform="translate(1056)" fill="none" stroke="#fde6f1" stroke-width="1"/>
      <path id="Path_9" data-name="Path 9" d="M0,0V1080" transform="translate(286)" fill="none" stroke="#fde6f1" stroke-width="1"/>
      <path id="Path_68" data-name="Path 68" d="M0,0V1080" transform="translate(1518)" fill="none" stroke="#fde6f1" stroke-width="1"/>
      <path id="Path_34" data-name="Path 34" d="M0,0V1080" transform="translate(902)" fill="none" stroke="#fde6f1" stroke-width="1"/>
      <path id="Path_17" data-name="Path 17" d="M0,0V1080" transform="translate(594)" fill="none" stroke="#fde6f1" stroke-width="1"/>
      <path id="Path_66" data-name="Path 66" d="M0,0V1080" transform="translate(1826)" fill="none" stroke="#fde6f1" stroke-width="1"/>
      <path id="Path_33" data-name="Path 33" d="M0,0V1080" transform="translate(1210)" fill="none" stroke="#fde6f1" stroke-width="1"/>
      <path id="Path_7" data-name="Path 7" d="M0,0V1080" transform="translate(154)" fill="none" stroke="#fde6f1" stroke-width="1"/>
      <path id="Path_64" data-name="Path 64" d="M0,0V1080" transform="translate(1386)" fill="none" stroke="#fde6f1" stroke-width="1"/>
      <path id="Path_32" data-name="Path 32" d="M0,0V1080" transform="translate(770)" fill="none" stroke="#fde6f1" stroke-width="1"/>
      <path id="Path_16" data-name="Path 16" d="M0,0V1080" transform="translate(462)" fill="none" stroke="#fde6f1" stroke-width="1"/>
      <path id="Path_62" data-name="Path 62" d="M0,0V1080" transform="translate(1694)" fill="none" stroke="#fde6f1" stroke-width="1"/>
      <path id="Path_31" data-name="Path 31" d="M0,0V1080" transform="translate(1078)" fill="none" stroke="#fde6f1" stroke-width="1"/>
      <path id="Path_8" data-name="Path 8" d="M0,0V1080" transform="translate(308)" fill="none" stroke="#fde6f1" stroke-width="1"/>
      <path id="Path_60" data-name="Path 60" d="M0,0V1080" transform="translate(1540)" fill="none" stroke="#fde6f1" stroke-width="1"/>
      <path id="Path_30" data-name="Path 30" d="M0,0V1080" transform="translate(924)" fill="none" stroke="#fde6f1" stroke-width="1"/>
      <path id="Path_15" data-name="Path 15" d="M0,0V1080" transform="translate(616)" fill="none" stroke="#fde6f1" stroke-width="1"/>
      <path id="Path_58" data-name="Path 58" d="M0,0V1080" transform="translate(1848)" fill="none" stroke="#fde6f1" stroke-width="1"/>
      <path id="Path_29" data-name="Path 29" d="M0,0V1080" transform="translate(1232)" fill="none" stroke="#fde6f1" stroke-width="1"/>
    </g>
    <g id="Group_2" data-name="Group 2" transform="translate(1920 -1936) rotate(90)">
      <path id="Path_109" data-name="Path 109" d="M0,0V1920" transform="translate(2178)" fill="none" stroke="#fde6f1" stroke-width="1"/>
      <path id="Path_137" data-name="Path 137" d="M0,0V1920" transform="translate(2728)" fill="none" stroke="#fde6f1" stroke-width="1"/>
      <path id="Path_107" data-name="Path 107" d="M0,0V1920" transform="translate(2024)" fill="none" stroke="#fde6f1" stroke-width="1"/>
      <path id="Path_136" data-name="Path 136" d="M0,0V1920" transform="translate(2574)" fill="none" stroke="#fde6f1" stroke-width="1"/>
      <path id="Path_105" data-name="Path 105" d="M0,0V1920" transform="translate(2332)" fill="none" stroke="#fde6f1" stroke-width="1"/>
      <path id="Path_135" data-name="Path 135" d="M0,0V1920" transform="translate(2882)" fill="none" stroke="#fde6f1" stroke-width="1"/>
      <path id="Path_101" data-name="Path 101" d="M0,0V1920" transform="translate(2200)" fill="none" stroke="#fde6f1" stroke-width="1"/>
      <path id="Path_134" data-name="Path 134" d="M0,0V1920" transform="translate(2750)" fill="none" stroke="#fde6f1" stroke-width="1"/>
      <path id="Path_99" data-name="Path 99" d="M0,0V1920" transform="translate(2046)" fill="none" stroke="#fde6f1" stroke-width="1"/>
      <path id="Path_133" data-name="Path 133" d="M0,0V1920" transform="translate(2596)" fill="none" stroke="#fde6f1" stroke-width="1"/>
      <path id="Path_97" data-name="Path 97" d="M0,0V1920" transform="translate(2354)" fill="none" stroke="#fde6f1" stroke-width="1"/>
      <path id="Path_132" data-name="Path 132" d="M0,0V1920" transform="translate(2904)" fill="none" stroke="#fde6f1" stroke-width="1"/>
      <path id="Path_93" data-name="Path 93" d="M0,0V1920" transform="translate(2222)" fill="none" stroke="#fde6f1" stroke-width="1"/>
      <path id="Path_131" data-name="Path 131" d="M0,0V1920" transform="translate(2772)" fill="none" stroke="#fde6f1" stroke-width="1"/>
      <path id="Path_91" data-name="Path 91" d="M0,0V1920" transform="translate(2068)" fill="none" stroke="#fde6f1" stroke-width="1"/>
      <path id="Path_130" data-name="Path 130" d="M0,0V1920" transform="translate(2618)" fill="none" stroke="#fde6f1" stroke-width="1"/>
      <path id="Path_89" data-name="Path 89" d="M0,0V1920" transform="translate(2376)" fill="none" stroke="#fde6f1" stroke-width="1"/>
      <path id="Path_129" data-name="Path 129" d="M0,0V1920" transform="translate(2926)" fill="none" stroke="#fde6f1" stroke-width="1"/>
      <path id="Path_87" data-name="Path 87" d="M0,0V1920" transform="translate(1936)" fill="none" stroke="#fde6f1" stroke-width="1"/>
      <path id="Path_128" data-name="Path 128" d="M0,0V1920" transform="translate(2486)" fill="none" stroke="#fde6f1" stroke-width="1"/>
      <path id="Path_85" data-name="Path 85" d="M0,0V1920" transform="translate(2244)" fill="none" stroke="#fde6f1" stroke-width="1"/>
      <path id="Path_127" data-name="Path 127" d="M0,0V1920" transform="translate(2794)" fill="none" stroke="#fde6f1" stroke-width="1"/>
      <path id="Path_83" data-name="Path 83" d="M0,0V1920" transform="translate(2090)" fill="none" stroke="#fde6f1" stroke-width="1"/>
      <path id="Path_126" data-name="Path 126" d="M0,0V1920" transform="translate(2640)" fill="none" stroke="#fde6f1" stroke-width="1"/>
      <path id="Path_81" data-name="Path 81" d="M0,0V1920" transform="translate(2398)" fill="none" stroke="#fde6f1" stroke-width="1"/>
      <path id="Path_125" data-name="Path 125" d="M0,0V1920" transform="translate(2948)" fill="none" stroke="#fde6f1" stroke-width="1"/>
      <path id="Path_79" data-name="Path 79" d="M0,0V1920" transform="translate(1958)" fill="none" stroke="#fde6f1" stroke-width="1"/>
      <path id="Path_124" data-name="Path 124" d="M0,0V1920" transform="translate(2508)" fill="none" stroke="#fde6f1" stroke-width="1"/>
      <path id="Path_77" data-name="Path 77" d="M0,0V1920" transform="translate(2266)" fill="none" stroke="#fde6f1" stroke-width="1"/>
      <path id="Path_123" data-name="Path 123" d="M0,0V1920" transform="translate(2816)" fill="none" stroke="#fde6f1" stroke-width="1"/>
      <path id="Path_75" data-name="Path 75" d="M0,0V1920" transform="translate(2112)" fill="none" stroke="#fde6f1" stroke-width="1"/>
      <path id="Path_122" data-name="Path 122" d="M0,0V1920" transform="translate(2662)" fill="none" stroke="#fde6f1" stroke-width="1"/>
      <path id="Path_73" data-name="Path 73" d="M0,0V1920" transform="translate(2420)" fill="none" stroke="#fde6f1" stroke-width="1"/>
      <path id="Path_121" data-name="Path 121" d="M0,0V1920" transform="translate(2970)" fill="none" stroke="#fde6f1" stroke-width="1"/>
      <path id="Path_71" data-name="Path 71" d="M0,0V1920" transform="translate(1980)" fill="none" stroke="#fde6f1" stroke-width="1"/>
      <path id="Path_120" data-name="Path 120" d="M0,0V1920" transform="translate(2530)" fill="none" stroke="#fde6f1" stroke-width="1"/>
      <path id="Path_69" data-name="Path 69" d="M0,0V1920" transform="translate(2288)" fill="none" stroke="#fde6f1" stroke-width="1"/>
      <path id="Path_119" data-name="Path 119" d="M0,0V1920" transform="translate(2838)" fill="none" stroke="#fde6f1" stroke-width="1"/>
      <path id="Path_67" data-name="Path 67" d="M0,0V1920" transform="translate(2134)" fill="none" stroke="#fde6f1" stroke-width="1"/>
      <path id="Path_118" data-name="Path 118" d="M0,0V1920" transform="translate(2684)" fill="none" stroke="#fde6f1" stroke-width="1"/>
      <path id="Path_65" data-name="Path 65" d="M0,0V1920" transform="translate(2442)" fill="none" stroke="#fde6f1" stroke-width="1"/>
      <path id="Path_117" data-name="Path 117" d="M0,0V1920" transform="translate(2992)" fill="none" stroke="#fde6f1" stroke-width="1"/>
      <path id="Path_63" data-name="Path 63" d="M0,0V1920" transform="translate(2002)" fill="none" stroke="#fde6f1" stroke-width="1"/>
      <path id="Path_116" data-name="Path 116" d="M0,0V1920" transform="translate(2552)" fill="none" stroke="#fde6f1" stroke-width="1"/>
      <path id="Path_61" data-name="Path 61" d="M0,0V1920" transform="translate(2310)" fill="none" stroke="#fde6f1" stroke-width="1"/>
      <path id="Path_115" data-name="Path 115" d="M0,0V1920" transform="translate(2860)" fill="none" stroke="#fde6f1" stroke-width="1"/>
      <path id="Path_59" data-name="Path 59" d="M0,0V1920" transform="translate(2156)" fill="none" stroke="#fde6f1" stroke-width="1"/>
      <path id="Path_114" data-name="Path 114" d="M0,0V1920" transform="translate(2706)" fill="none" stroke="#fde6f1" stroke-width="1"/>
      <path id="Path_57" data-name="Path 57" d="M0,0V1920" transform="translate(2464)" fill="none" stroke="#fde6f1" stroke-width="1"/>
      <path id="Path_113" data-name="Path 113" d="M0,0V1920" transform="translate(3014)" fill="none" stroke="#fde6f1" stroke-width="1"/>
    </g>
    <g id="Rectangle_1" data-name="Rectangle 1" transform="translate(620 226)" fill="#fde6f1" stroke="#000" stroke-width="2">
      <path d="M0,0H696a0,0,0,0,1,0,0V555a55,55,0,0,1-55,55H55A55,55,0,0,1,0,555V0A0,0,0,0,1,0,0Z" stroke="none"/>
      <path d="M2,1H694a1,1,0,0,1,1,1V555a54,54,0,0,1-54,54H55A54,54,0,0,1,1,555V2A1,1,0,0,1,2,1Z" fill="none"/>
    </g>
    <g id="Rectangle_10" data-name="Rectangle 10" transform="translate(620 150)" fill="#fac5de" stroke="#000" stroke-width="2">
      <path d="M55,0H641a55,55,0,0,1,55,55V76a0,0,0,0,1,0,0H0a0,0,0,0,1,0,0V55A55,55,0,0,1,55,0Z" stroke="none"/>
      <path d="M55,1H641a54,54,0,0,1,54,54V74a1,1,0,0,1-1,1H2a1,1,0,0,1-1-1V55A54,54,0,0,1,55,1Z" fill="none"/>
    </g>
    <line id="Line_1" data-name="Line 1" x2="695.995" transform="translate(620.005 227.067)" fill="none" stroke="#000" stroke-width="2"/>
    <g id="Rectangle_2" data-name="Rectangle 2" transform="translate(648 511)" fill="none" stroke="#707070" stroke-width="1" opacity="0.46">
      <rect width="642" height="207" rx="17" stroke="none"/>
      <rect x="0.5" y="0.5" width="641" height="206" rx="16.5" fill="none"/>
    </g>
    <g id="Rectangle_8" data-name="Rectangle 8" transform="translate(648 511)" fill="#fac5de" stroke="#000" stroke-width="2">
      <path d="M16,0H626a16,16,0,0,1,16,16V35a0,0,0,0,1,0,0H0a0,0,0,0,1,0,0V16A16,16,0,0,1,16,0Z" stroke="none"/>
      <path d="M16,1H626a15,15,0,0,1,15,15V33a1,1,0,0,1-1,1H2a1,1,0,0,1-1-1V16A15,15,0,0,1,16,1Z" fill="none"/>
    </g>
    <g id="Rectangle_9" data-name="Rectangle 9" transform="translate(648 544)" fill="#fff" stroke="#010101" stroke-width="2">
      <path d="M0,0H642a0,0,0,0,1,0,0V158a16,16,0,0,1-16,16H16A16,16,0,0,1,0,158V0A0,0,0,0,1,0,0Z" stroke="none"/>
      <path d="M2,1H640a1,1,0,0,1,1,1V158a15,15,0,0,1-15,15H16A15,15,0,0,1,1,158V2A1,1,0,0,1,2,1Z" fill="none"/>
    </g>
    <g id="Ellipse_1" data-name="Ellipse 1" transform="translate(684 521)" fill="#fff" stroke="#000" stroke-width="2">
      <circle cx="7.5" cy="7.5" r="7.5" stroke="none"/>
      <circle cx="7.5" cy="7.5" r="6.5" fill="none"/>
    </g>
    <g id="Ellipse_2" data-name="Ellipse 2" transform="translate(703 521)" fill="#fff" stroke="#000" stroke-width="2">
      <circle cx="7.5" cy="7.5" r="7.5" stroke="none"/>
      <circle cx="7.5" cy="7.5" r="6.5" fill="none"/>
    </g>
    <g id="Ellipse_3" data-name="Ellipse 3" transform="translate(665 521)" fill="#fff" stroke="#000" stroke-width="2">
      <ellipse cx="7" cy="7.5" rx="7" ry="7.5" stroke="none"/>
      <ellipse cx="7" cy="7.5" rx="6" ry="6.5" fill="none"/>
    </g>
    <line id="Line_3" data-name="Line 3" y2="14.36" transform="translate(1265.739 520.974)" fill="none" stroke="#000" stroke-width="2"/>
    <line id="Line_4" data-name="Line 4" x2="14.36" transform="translate(1258.08 528.633)" fill="none" stroke="#040404" stroke-width="2"/>
    <rect id="Rectangle_3" data-name="Rectangle 3" width="642" height="60" transform="translate(648 377)" fill="#fff"/>
    <g id="Rectangle_4" data-name="Rectangle 4" transform="translate(1143 175)" fill="#fff" stroke="#000" stroke-width="3">
      <rect width="35" height="32" stroke="none"/>
      <rect x="1.5" y="1.5" width="32" height="29" fill="none"/>
    </g>
    <g id="Rectangle_5" data-name="Rectangle 5" transform="translate(1237 175)" fill="#fff" stroke="#000" stroke-width="3">
      <rect width="36" height="32" stroke="none"/>
      <rect x="1.5" y="1.5" width="33" height="29" fill="none"/>
    </g>
    <g id="Rectangle_6" data-name="Rectangle 6" transform="translate(1190 175)" fill="#fff" stroke="#000" stroke-width="3">
      <rect width="35" height="32" stroke="none"/>
      <rect x="1.5" y="1.5" width="32" height="29" fill="none"/>
    </g>
    <g id="Rectangle_7" data-name="Rectangle 7" transform="translate(1197 184)" fill="#fff" stroke="#000" stroke-width="3">
      <rect width="20" height="17" stroke="none"/>
      <rect x="1.5" y="1.5" width="17" height="14" fill="none"/>
    </g>
    <line id="Line_5" data-name="Line 5" x2="17.232" transform="translate(1198.724 186.858)" fill="none" stroke="#000" stroke-width="3"/>
    <line id="Line_6" data-name="Line 6" x2="14.36" y2="13.403" transform="translate(1247.549 184.943)" fill="none" stroke="#000" stroke-width="3"/>
    <line id="Line_7" data-name="Line 7" x1="14.36" y2="13.403" transform="translate(1247.549 184.943)" fill="none" stroke="#000" stroke-width="3"/>
    <line id="Line_8" data-name="Line 8" x2="20.104" transform="translate(1150.857 199.304)" fill="none" stroke="#000" stroke-width="3"/>
    <text id="TASK:_Filling_the_marks_to_get_the_UI_and_the_functionality" data-name="TASK: Filling the &apos;?&apos; marks to get the UI
and the functionality" transform="translate(688 629)" font-size="33" font-family="Nunito-Bold, Nunito" font-weight="700" letter-spacing="-0.032em"><tspan x="0" y="0">TASK: Filling the &apos;?&apos; marks to get the UI</tspan><tspan x="0" y="38">and the functionality</tspan></text>
  </g>
</svg>
